<svg viewBox="0 0 488 488.75073" xmlns="http://www.w3.org/2000/svg">
<path d="m377.65625 111.378906c73.414062 73.429688 73.40625 192.46875-.015625 265.886719-73.425781 73.417969-192.464844 73.417969-265.886719 0-73.425781-73.417969-73.433594-192.457031-.019531-265.886719 73.4375-73.425781 192.484375-73.425781 265.921875 0zm0 0" 
fill="#57a4ff"/><path d="m284.457031 204.5625c-16.242187 54.816406 94.71875 58.496094 147.550781 54.398438 4.371094-54.773438-15.488281-108.714844-54.339843-147.574219-38.851563-38.859375-92.789063-58.734375-147.566407-54.375-4.09375 52.925781 75.632813 75.648437 54.355469 147.550781zm0 0" 
fill="#00eed1"/><path d="m97.960938 361.140625c72.398437 32.460937 134.398437-104.464844 76.796874-144.335937-37.101562-25.730469-91.695312-12.800782-103.199218-45.394532-26.457032 63.324219-16.339844 136.035156 26.402344 189.730469zm0 0" 
fill="#00eed1"/><path d="m474.839844 14.210938c-38.242188-38.289063-123.953125 9.457031-171.617188 41.328124l-10.65625 7.121094c12.777344 3.324219 25.167969 7.996094 36.960938 13.933594 67.726562-43.632812 110.914062-51.519531 122.6875-39.757812 13.214844 13.214843.304687 59.789062-39.871094 122.464843-32.976562 50.128907-71.183594 96.613281-113.984375 138.671875-42.046875 42.800782-88.527344 81.007813-138.65625 113.980469-62.6875 40.179687-109.261719 53.1875-122.496094 39.890625-11.710937-11.730469-3.871093-54.960938 39.777344-122.703125-5.949219-11.808594-10.625-24.214844-13.953125-37.007813l-7.855469 11.804688c-31.519531 47.34375-78.703125 132.402344-40.59375 170.53125 10.472657 9.84375 24.515625 14.976562 38.867188 14.207031 37.230469 0 88.847656-24.59375 143.34375-62.703125 44.332031-31.503906 85.882812-66.753906 124.191406-105.363281 38.605469-38.332031 73.847656-79.910156 105.34375-124.269531 54.253906-77.730469 81.152344-149.488282 48.511719-182.128906zm0 0" 
fill="#6e76e5"/><path d="m310.902344 308.226562-24.992188 76.863282-52.269531-52.222656zm0 0" fill="#00eed1"/></svg>